<svg xmlns="http://www.w3.org/2000/svg" width="331" height="349.192" viewBox="0 0 331 349.192">
  <g id="그룹_68" data-name="그룹 68" transform="translate(0 -0.006)">
    <path id="패스_185" data-name="패스 185" d="M691.245,738.742,670.65,725.6l26.827,7.681c16.853-16.1,29.2-38.407,29.2-38.407s-45.138-27.563-72.943-20.207-33.141,26.453-27.747,46.843,19.475,34.351,47.279,27C679.454,746.864,685.533,743.3,691.245,738.742Z" transform="translate(-448.216 -402.516)" fill="#88a67b"/>
    <path id="패스_186" data-name="패스 186" d="M673.145,748.995l-1.371.362c-15.952,4.133-29.093,4.734-39.24,1.778-.149-.041-.292-.09-.441-.13l.2-.685.2-.656c11,3.348,24.905,1.884,38.82-1.717.45-.112.906-.225,1.359-.352,5.877-1.576,11.732-3.51,17.36-5.616.437-.159.879-.327,1.321-.495,7.414-2.818,14.4-5.9,20.414-8.754.426-.2.851-.407,1.268-.611,10.166-4.874,17.37-9.009,18.961-9.938.2-.11.3-.174.328-.188l.354.6.009.005.355.6c-.025.014-.382.232-1.051.612-2.495,1.437-9.289,5.252-18.42,9.65-.413.2-.837.4-1.263.6-4.881,2.322-10.372,4.784-16.2,7.124q-2.194.885-4.343,1.693c-.44.175-.882.342-1.319.5Q681.328,746.793,673.145,748.995Z" transform="translate(-452.759 -430.154)" fill="#fff"/>
    <path id="패스_187" data-name="패스 187" d="M815.319,719.063c-.181-.438-.364-.884-.536-1.339a38.713,38.713,0,0,1-1.209-3.775,37.663,37.663,0,0,1-.609-16.681l-1.313-.574a39.055,39.055,0,0,0,.565,17.615,40.06,40.06,0,0,0,1.3,4.027c.169.449.353.894.541,1.331a38.734,38.734,0,0,0,6.14,9.955q.444-.586.873-1.146A37.534,37.534,0,0,1,815.319,719.063Z" transform="translate(-554.499 -415.76)" fill="#fff"/>
    <path id="패스_188" data-name="패스 188" d="M766.331,722.253q-.226-.691-.412-1.394c-.044-.141-.084-.29-.122-.432a37.862,37.862,0,0,1,7.746-34.194c-.472-.165-.944-.331-1.421-.488a39.268,39.268,0,0,0-7.682,35.041c.05.19.1.38.158.568.132.473.27.938.414,1.4a39.059,39.059,0,0,0,12.378,18.25c.343-.323.686-.646,1.027-.976a37.6,37.6,0,0,1-12.085-17.776Z" transform="translate(-527.317 -409.531)" fill="#fff"/>
    <path id="패스_189" data-name="패스 189" d="M722.633,724.5c-.166-.464-.319-.932-.465-1.4-.155-.5-.3-1.009-.438-1.518a37.964,37.964,0,0,1,17.1-42.171c-.63-.16-1.254-.322-1.881-.468a39.355,39.355,0,0,0-16.575,43c.135.509.276,1.016.436,1.511.141.478.294.946.453,1.412a39.239,39.239,0,0,0,18.842,21.8c.464-.275.917-.569,1.376-.865a37.841,37.841,0,0,1-18.847-21.3Z" transform="translate(-502.247 -405.661)" fill="#fff"/>
    <path id="패스_190" data-name="패스 190" d="M509.137,391.591l-101.849-41a24.855,24.855,0,0,1-13.76-32.3L497.3,60.492a24.855,24.855,0,0,1,32.3-13.761l101.849,41a24.855,24.855,0,0,1,13.76,32.3l-103.77,257.8A24.855,24.855,0,0,1,509.137,391.591Z" transform="translate(-316.002 -44.932)" fill="#313131"/>
    <path id="패스_191" data-name="패스 191" d="M636.392,104.8l-11.337-4.563a4.118,4.118,0,0,0-5.352,2.28,8.418,8.418,0,0,1-10.943,4.662L553.313,84.858a8.418,8.418,0,0,1-4.662-10.943,4.118,4.118,0,0,0-2.28-5.352l-10-4.024a18.854,18.854,0,0,0-24.5,10.437L408.844,330.945a18.854,18.854,0,0,0,10.437,24.5L519.3,395.7a18.854,18.854,0,0,0,24.5-10.437L646.828,129.3a18.854,18.854,0,0,0-10.437-24.5Z" transform="translate(-324.964 -55.311)" fill="#fff"/>
    <path id="패스_192" data-name="패스 192" d="M806.29,117.686,775.01,105.1a1.2,1.2,0,1,1,.9-2.234l31.28,12.591a1.2,1.2,0,1,1-.9,2.234Z" transform="translate(-533.644 -77.839)" fill="#fff"/>
    <circle id="타원_33" data-name="타원 33" cx="0.963" cy="0.963" r="0.963" transform="translate(277.047 39.745)" fill="#fff"/>
    <path id="패스_193" data-name="패스 193" d="M906.651,344.982a2.17,2.17,0,0,1-1.2-2.82l15.829-39.324a2.168,2.168,0,1,1,4.022,1.619l-15.828,39.324A2.17,2.17,0,0,1,906.651,344.982Z" transform="translate(-608.201 -190.896)" fill="#313131"/>
    <path id="패스_194" data-name="패스 194" d="M588.547,178.745a2.17,2.17,0,0,1-1.2-2.82l3.6-8.937a2.168,2.168,0,0,1,4.022,1.619l-3.6,8.937a2.17,2.17,0,0,1-2.82,1.2Z" transform="translate(-427.21 -113.601)" fill="#313131"/>
    <path id="패스_195" data-name="패스 195" d="M573.107,217.1a2.17,2.17,0,0,1-1.2-2.82l3.6-8.937a2.168,2.168,0,1,1,4.022,1.619l-3.6,8.937a2.17,2.17,0,0,1-2.82,1.2Z" transform="translate(-418.425 -135.426)" fill="#313131"/>
    <path id="패스_196" data-name="패스 196" d="M736.52,256.25l-43.267-17.416a3.619,3.619,0,0,1-2-4.7l10.384-25.8a3.619,3.619,0,0,1,4.7-2L749.6,223.755a3.619,3.619,0,0,1,2,4.7l-10.384,25.8A3.62,3.62,0,0,1,736.52,256.25Zm-30.917-48.1a1.659,1.659,0,0,0-2.152.918l-10.383,25.8a1.659,1.659,0,0,0,.918,2.153l43.263,17.414a1.66,1.66,0,0,0,2.154-.918l10.383-25.8a1.659,1.659,0,0,0-.918-2.152Z" transform="translate(-486.271 -136.617)" fill="#88a67b"/>
    <path id="패스_197" data-name="패스 197" d="M751.105,239.794h0l-33.4-13.444a2.446,2.446,0,0,1-1.525-2.358l.63-15.643a2.438,2.438,0,0,1,3.342-2.164l44.2,17.7a2.438,2.438,0,0,1,1.361,3.154l.145.145-1.386,1.38h0L753.734,239.26A2.432,2.432,0,0,1,751.105,239.794Z" transform="translate(-500.6 -136.577)" fill="#88a67b"/>
    <path id="패스_198" data-name="패스 198" d="M718.187,275.351l-14.854-5.979a1.488,1.488,0,1,1,1.111-2.76l14.854,5.979a1.488,1.488,0,1,1-1.111,2.76Z" transform="translate(-492.761 -170.996)" fill="#88a67b"/>
    <circle id="타원_34" data-name="타원 34" cx="3.636" cy="3.636" r="3.636" transform="translate(230.986 92.134)" fill="#fff"/>
    <path id="패스_199" data-name="패스 199" d="M586.84,628.111,543.573,610.7a3.619,3.619,0,0,1-2-4.7l10.384-25.8a3.619,3.619,0,0,1,4.7-2l43.266,17.415a3.619,3.619,0,0,1,2,4.7l-10.384,25.8a3.62,3.62,0,0,1-4.7,2Zm-30.917-48.1a1.659,1.659,0,0,0-2.152.918l-10.383,25.8a1.659,1.659,0,0,0,.918,2.153L587.568,626.3a1.66,1.66,0,0,0,2.154-.918l10.383-25.8a1.659,1.659,0,0,0-.918-2.152Z" transform="translate(-401.108 -348.194)" fill="#88a67b"/>
    <path id="패스_200" data-name="패스 200" d="M601.425,611.654h0l-33.4-13.444a2.446,2.446,0,0,1-1.525-2.358l.63-15.643a2.438,2.438,0,0,1,3.342-2.164l44.2,17.7a2.438,2.438,0,0,1,1.361,3.154l.145.145-1.386,1.38h0L604.053,611.12A2.432,2.432,0,0,1,601.425,611.654Z" transform="translate(-415.436 -348.154)" fill="#88a67b"/>
    <path id="패스_201" data-name="패스 201" d="M568.506,647.212l-14.854-5.979a1.488,1.488,0,1,1,1.111-2.76l14.854,5.979a1.488,1.488,0,0,1-1.111,2.76Z" transform="translate(-407.598 -382.573)" fill="#88a67b"/>
    <circle id="타원_35" data-name="타원 35" cx="3.636" cy="3.636" r="3.636" transform="translate(166.469 252.417)" fill="#fff"/>
    <path id="패스_258" data-name="패스 258" d="M39.772,0A39.772,39.772,0,1,1,0,39.772,39.772,39.772,0,0,1,39.772,0Z" transform="translate(163.1 135.038)" fill="#88a67b"/>
    <path id="패스_202" data-name="패스 202" d="M661.624,442.158l-43.267-17.416a3.619,3.619,0,0,1-2-4.7l10.384-25.8a3.619,3.619,0,0,1,4.7-2L674.7,409.663a3.619,3.619,0,0,1,2,4.7l-10.384,25.8A3.62,3.62,0,0,1,661.624,442.158Zm-30.917-48.1a1.659,1.659,0,0,0-2.152.918l-10.383,25.8a1.66,1.66,0,0,0,.918,2.153l43.263,17.414a1.66,1.66,0,0,0,2.154-.918l10.383-25.8a1.659,1.659,0,0,0-.918-2.152Z" transform="translate(-443.658 -242.393)" fill="#fff"/>
    <path id="패스_203" data-name="패스 203" d="M676.21,425.7h0l-33.4-13.444a2.446,2.446,0,0,1-1.526-2.358l.63-15.643a2.438,2.438,0,0,1,3.342-2.164l44.2,17.7a2.438,2.438,0,0,1,1.361,3.154l.145.145-1.386,1.38h0l-10.738,10.691a2.432,2.432,0,0,1-2.629.534Z" transform="translate(-457.987 -242.353)" fill="#fff"/>
    <path id="패스_204" data-name="패스 204" d="M643.291,461.259l-14.854-5.979a1.488,1.488,0,1,1,1.111-2.76L644.4,458.5a1.488,1.488,0,1,1-1.111,2.76Z" transform="translate(-450.148 -276.772)" fill="#fff"/>
    <path id="패스_205" data-name="패스 205" d="M411.606,489.863a5.2,5.2,0,0,0-6.092-5.155l-8.955-16.182-4.458,8.514,9.188,14.062a5.233,5.233,0,0,0,10.318-1.239Z" transform="translate(-316.21 -285.941)" fill="#9e616a"/>
    <path id="패스_206" data-name="패스 206" d="M387.926,365.531l-9.209-.646s-1.134-.154-4.254,4.793S360.65,399.71,360.65,399.71L379.384,426.9l6.085-6.057L374.59,398.964l10.427-14.644Z" transform="translate(-298.316 -226.971)" fill="#cacaca"/>
    <path id="패스_207" data-name="패스 207" d="M630.513,418.826a4.518,4.518,0,0,1-6.049-3.378l-15.885-2.339,5.559-6.222,14.233,3.175a4.543,4.543,0,0,1,2.143,8.764Z" transform="translate(-439.38 -250.87)" fill="#9e616a"/>
    <path id="패스_208" data-name="패스 208" d="M301.765,758.789h6.788l3.229-26.183H301.764Z" transform="translate(-171.694 -416.827)" fill="#9e616a"/>
    <path id="패스_209" data-name="패스 209" d="M513.784,829.138h1.911l7.46-3.034,4,3.033h0a8.52,8.52,0,0,1,8.519,8.519v.277H513.784Z" transform="translate(-385.444 -489.391)" fill="#2f2e41"/>
    <path id="패스_210" data-name="패스 210" d="M206.765,758.789h6.788l3.229-26.183H206.764Z" transform="translate(-117.642 -416.827)" fill="#9e616a"/>
    <path id="패스_211" data-name="패스 211" d="M418.784,829.138h1.911l7.46-3.034,4,3.033h0a8.52,8.52,0,0,1,8.519,8.519v.277H418.784Z" transform="translate(-331.392 -489.391)" fill="#2f2e41"/>
    <path id="패스_212" data-name="패스 212" d="M206.919,490.774l-4.487,27.045,1.509,86.936h11.043L231.949,512.8l12.2,90.447,11.1-.481,5.541-91.3-4.979-23.3Z" transform="translate(-115.177 -277.746)" fill="#cb9974"/>
    <path id="패스_213" data-name="패스 213" d="M454.71,341.618l-11.819-1.741-2.513-6.524-16.651-.023-3.741,8.519-17.015,5.137,14.1,48.425s-7.769,18-5.858,18.073,2.852,2.809,1.519,4.245-4.007.522-2.67,2.7a10.183,10.183,0,0,1,1.507,3.895s56.379,12.037,53.256-3.484c-.388-1.929-5.1-28.66-5.1-28.66s4.1-4.539,2.349-6.343-.827-20.855-.827-20.855Z" transform="translate(-322.396 -209.018)" fill="#cacaca"/>
    <path id="패스_214" data-name="패스 214" d="M302.483,309.744l1.935-2.116,26.28,15.409,22.237,8.868.431,7.759-28.879-3.448-20.44-9.994Z" transform="translate(-172.103 -175.027)" fill="#cacaca"/>
    <path id="패스_215" data-name="패스 215" d="M464.823,271.6a13.911,13.911,0,0,1-13.911,13.911,14.278,14.278,0,0,1-3.254-.381A13.917,13.917,0,1,1,464.823,271.6Z" transform="translate(-341.75 -165.976)" fill="#9e616a"/>
    <path id="패스_216" data-name="패스 216" d="M451.7,274l-9.992,1.927a6.472,6.472,0,0,1-2.855.118c-1.486-.391-2.482-1.763-3.243-3.1a29.342,29.342,0,0,1-3.123-20.608c.341-1.55,1.071-3.325,2.626-3.641a2.906,2.906,0,0,0,1.32-.346,1.215,1.215,0,0,0-.164-1.776,3.516,3.516,0,0,0-1.907-.62,4.822,4.822,0,0,1,3.566-1.7l-2.673-1.485a5.582,5.582,0,0,1,4.535-.426,30.332,30.332,0,0,0,4.54,1.186c1.959.184,3.891-.446,5.844-.689a15.32,15.32,0,0,1,14.8,7.366,6.65,6.65,0,0,1,.983,2.77,3.186,3.186,0,0,1-.995,2.676c-1.094.92-2.818.785-3.877,1.744a4.23,4.23,0,0,0-1.066,3.035,8.3,8.3,0,0,1-.466,3.247,2.159,2.159,0,0,1-2.688,1.25,2.45,2.45,0,0,0-2.951-2.048,3.883,3.883,0,0,0-2.705,2.805,10.068,10.068,0,0,0-.1,4.063,15.727,15.727,0,0,1,.2,4.076" transform="translate(-338.815 -157.096)" fill="#2f2e41"/>
    <circle id="타원_37" data-name="타원 37" cx="3.636" cy="3.636" r="3.636" transform="translate(197.151 172.669)" fill="#88a67b"/>
    <path id="패스_217" data-name="패스 217" d="M495.552,853.713h-279a.513.513,0,1,1,0-1.026h279a.513.513,0,1,1,0,1.026Z" transform="translate(-216.035 -504.516)" fill="#cacaca"/>
  </g>
</svg>
