<svg xmlns="http://www.w3.org/2000/svg" width="38" height="38" viewBox="0 0 38 38">
  <g id="그룹_178" data-name="그룹 178" transform="translate(-59 -147.002)">
    <circle id="타원_76" data-name="타원 76" cx="19" cy="19" r="19" transform="translate(59 147.002)" fill="#88a67b"/>
    <path id="ic_local_atm_24px" d="M11,17h2V16h1a1,1,0,0,0,1-1V12a1,1,0,0,0-1-1H11V10h4V8H13V7H11V8H10A1,1,0,0,0,9,9v3a1,1,0,0,0,1,1h3v1H9v2h2ZM20,4H4A1.985,1.985,0,0,0,2.01,6L2,18a1.993,1.993,0,0,0,2,2H20a1.993,1.993,0,0,0,2-2V6A1.993,1.993,0,0,0,20,4Zm0,14H4V6H20Z" transform="translate(66 154.002)" fill="#fff"/>
  </g>
</svg>
